<?xml version="1.0" standalone="no"?>
<!DOCTYPE svg PUBLIC "-//W3C//DTD SVG 20010904//EN"
 "http://www.w3.org/TR/2001/REC-SVG-20010904/DTD/svg10.dtd">
<svg version="1.0" xmlns="http://www.w3.org/2000/svg"
 width="512.000000pt" height="512.000000pt" viewBox="0 0 512.000000 512.000000"
 preserveAspectRatio="xMidYMid meet">
<metadata>
Created by potrace 1.14, written by Peter Selinger 2001-2017
</metadata>
<g transform="translate(0.000000,512.000000) scale(0.100000,-0.100000)"
fill="#000000" stroke="none">
<path d="M4514 4924 l-582 -195 -1218 -1336 c-671 -735 -1220 -1339 -1221
-1342 -2 -3 73 -55 165 -115 l169 -109 109 -169 c60 -92 112 -167 115 -165 3
1 607 550 1342 1221 l1336 1218 196 587 c107 322 195 589 195 594 0 4 -6 7
-12 6 -7 0 -275 -88 -594 -195z"/>
<path d="M635 2220 l-130 -130 269 -269 268 -268 -316 -401 -317 -400 -68 -4
c-184 -10 -330 -161 -339 -351 -6 -124 28 -215 110 -293 84 -80 163 -108 285
-103 189 9 340 156 351 341 l4 67 400 317 401 316 268 -268 269 -269 131 131
131 131 -327 466 -327 465 -464 326 c-255 179 -465 326 -467 326 -1 0 -61 -59
-132 -130z"/>
</g>
</svg>
